<svg viewBox="0 0 1280 820" xmlns="http://www.w3.org/2000/svg" font-family="-apple-system, 'Microsoft JhengHei', sans-serif">
  <title>Autonomous Agent + EgentHub 雙層協作架構</title>
  <desc>說明訊號層 Autonomous Agent 與決策層 EgentHub 如何分工，由東元數發處、Intellicon 顧問、GM 業務團隊三方協作</desc>
  <rect width="1280" height="820" fill="#FFFFFF"/>
  <text x="640" y="48" text-anchor="middle" font-size="26" font-weight="700" fill="#3D2F66">商機分析 AI 雙層協作架構</text>
  <text x="640" y="74" text-anchor="middle" font-size="14" fill="#5C6B80">訊號層（Autonomous Agent）× 決策層（EgentHub）× 三方協作</text>
  <text x="640" y="92" text-anchor="middle" font-size="11" fill="#5C6B80" font-style="italic">附註：Autonomous Agent 非 EgentHub 既有功能，初期由東元數發處建置；Intellicon 自有方案預計 2026 Q3 推出可評估替換</text>

  <rect x="40" y="110" width="980" height="240" fill="#E9DEF6" stroke="#8A7AD2" stroke-width="1.5" rx="8"/>
  <rect x="40" y="110" width="240" height="38" fill="#8A7AD2" rx="8"/>
  <rect x="40" y="140" width="240" height="8" fill="#8A7AD2"/>
  <text x="56" y="135" font-size="14" font-weight="700" fill="#FFFFFF">訊號層 ｜ Autonomous Agent</text>
  <!--banner width adjusted-->

  <text x="980" y="135" text-anchor="end" font-size="12" fill="#3D2F66" font-style="italic">非 EgentHub 既有 ｜ 數發處建置 ｜ 已驗證可行（CTCI 報告）</text>

  <rect x="68" y="174" width="220" height="146" fill="#FFFFFF" stroke="#5D4894" stroke-width="1" rx="6"/>
  <text x="178" y="200" text-anchor="middle" font-size="14" font-weight="700" fill="#3D2F66">外部公開資訊</text>
  <line x1="88" y1="212" x2="268" y2="212" stroke="#D5C8EE" stroke-width="1"/>
  <text x="88" y="234" font-size="12" fill="#333333">• 政府標案、MOPS 公告</text>
  <text x="88" y="254" font-size="12" fill="#333333">• 客戶年報、新聞、徵才</text>
  <text x="88" y="274" font-size="12" fill="#333333">• 產業趨勢、原物料行情</text>
  <text x="88" y="294" font-size="12" fill="#333333">• 上下游、競爭對手動態</text>

  <path d="M 290 247 L 320 247" stroke="#8A7AD2" stroke-width="2" marker-end="url(#arrow)"/>

  <rect x="328" y="174" width="320" height="146" fill="#FFFFFF" stroke="#5D4894" stroke-width="1" rx="6"/>
  <text x="488" y="200" text-anchor="middle" font-size="14" font-weight="700" fill="#3D2F66">客戶研究與標案分析</text>
  <line x1="348" y1="212" x2="628" y2="212" stroke="#D5C8EE" stroke-width="1"/>
  <text x="348" y="234" font-size="12" fill="#333333">• 得失標彙總（金額、工期、設備）</text>
  <text x="348" y="254" font-size="12" fill="#333333">• 競爭格局與聯盟地圖</text>
  <text x="348" y="274" font-size="12" fill="#333333">• 護城河與進入門檻評估</text>
  <text x="348" y="294" font-size="12" fill="#333333">• 一次性深度研究報告</text>

  <path d="M 650 247 L 680 247" stroke="#8A7AD2" stroke-width="2" marker-end="url(#arrow)"/>

  <rect x="688" y="174" width="312" height="146" fill="#FFFFFF" stroke="#5D4894" stroke-width="1" rx="6"/>
  <text x="844" y="200" text-anchor="middle" font-size="14" font-weight="700" fill="#3D2F66">客戶研究 xlsx 報告</text>
  <line x1="708" y1="212" x2="980" y2="212" stroke="#D5C8EE" stroke-width="1"/>
  <text x="708" y="234" font-size="12" fill="#333333">• 標案彙總表 / 標案特徵一覽</text>
  <text x="708" y="254" font-size="12" fill="#333333">• 競爭格局分析</text>
  <text x="708" y="274" font-size="12" fill="#333333">• 聯盟生態地圖</text>
  <text x="708" y="294" font-size="12" fill="#333333">• 客戶經營關鍵數字</text>

  <path d="M 844 350 L 844 410" stroke="#8A7AD2" stroke-width="3" marker-end="url(#arrow)"/>
  <rect x="754" y="362" width="180" height="34" fill="#FFFFFF" stroke="#8A7AD2" stroke-width="1.5" rx="6"/>
  <text x="844" y="384" text-anchor="middle" font-size="13" font-weight="600" fill="#8A7AD2">xlsx 灌入企業知識庫</text>

  <rect x="40" y="420" width="980" height="240" fill="#D5C8EE" stroke="#3D2F66" stroke-width="1.5" rx="8"/>
  <rect x="40" y="420" width="220" height="38" fill="#3D2F66" rx="8"/>
  <rect x="40" y="450" width="220" height="8" fill="#3D2F66"/>
  <text x="56" y="445" font-size="14" font-weight="700" fill="#FFFFFF">決策層 ｜ EgentHub</text>
  <text x="980" y="445" text-anchor="end" font-size="12" fill="#3D2F66" font-style="italic">Intellicon 主導開發</text>

  <rect x="68" y="484" width="220" height="146" fill="#FFFFFF" stroke="#3D2F66" stroke-width="1" rx="6"/>
  <text x="178" y="510" text-anchor="middle" font-size="14" font-weight="700" fill="#3D2F66">輸入資料</text>
  <line x1="88" y1="522" x2="268" y2="522" stroke="#D5C8EE" stroke-width="1"/>
  <text x="88" y="544" font-size="12" fill="#333333">• Autonomous Agent xlsx</text>
  <text x="88" y="564" font-size="12" fill="#333333">• 東元能力庫</text>
  <text x="88" y="584" font-size="12" fill="#333333">• 產業設備對照庫</text>
  <text x="88" y="604" font-size="12" fill="#333333">• 歷史報價／成交紀錄</text>

  <path d="M 290 557 L 320 557" stroke="#3D2F66" stroke-width="2" marker-end="url(#arrow2)"/>

  <rect x="328" y="484" width="320" height="146" fill="#FFFFFF" stroke="#3D2F66" stroke-width="1" rx="6"/>
  <text x="488" y="510" text-anchor="middle" font-size="14" font-weight="700" fill="#3D2F66">商機分析師（雙 Agent）</text>
  <line x1="348" y1="522" x2="628" y2="522" stroke="#D5C8EE" stroke-width="1"/>
  <rect x="348" y="534" width="130" height="80" fill="#F4F6F9" stroke="#5D4894" stroke-width="0.8" rx="4"/>
  <text x="413" y="552" text-anchor="middle" font-size="12" font-weight="700" fill="#3D2F66">研究助理</text>
  <text x="413" y="572" text-anchor="middle" font-size="11" fill="#5C6B80">輔助型</text>
  <text x="413" y="590" text-anchor="middle" font-size="10" fill="#5C6B80">解析 xlsx</text>
  <text x="413" y="606" text-anchor="middle" font-size="10" fill="#5C6B80">補充資料整理</text>
  <rect x="498" y="534" width="130" height="80" fill="#F4F6F9" stroke="#5D4894" stroke-width="0.8" rx="4"/>
  <text x="563" y="552" text-anchor="middle" font-size="12" font-weight="700" fill="#3D2F66">商機分析師</text>
  <text x="563" y="572" text-anchor="middle" font-size="11" fill="#5C6B80">核心 Agent</text>
  <text x="563" y="590" text-anchor="middle" font-size="10" fill="#5C6B80">商機化、評分</text>
  <text x="563" y="606" text-anchor="middle" font-size="10" fill="#5C6B80">排序、行動建議</text>

  <path d="M 650 557 L 680 557" stroke="#3D2F66" stroke-width="2" marker-end="url(#arrow2)"/>

  <rect x="688" y="484" width="312" height="146" fill="#FFFFFF" stroke="#3D2F66" stroke-width="1" rx="6"/>
  <text x="844" y="510" text-anchor="middle" font-size="14" font-weight="700" fill="#3D2F66">商機決策輸出</text>
  <line x1="708" y1="522" x2="980" y2="522" stroke="#D5C8EE" stroke-width="1"/>
  <text x="708" y="544" font-size="12" fill="#333333">• 東元可切入商機清單</text>
  <text x="708" y="564" font-size="12" fill="#333333">• 建議產品線與合作模式</text>
  <text x="708" y="584" font-size="12" fill="#333333">• 商機評分與排序</text>
  <text x="708" y="604" font-size="12" fill="#333333">• 業務行動建議</text>

  <rect x="1050" y="110" width="200" height="550" fill="#F4F6F9" stroke="#5C6B80" stroke-width="0.8" rx="6"/>
  <text x="1150" y="138" text-anchor="middle" font-size="14" font-weight="700" fill="#3D2F66">三方協作</text>
  <line x1="1070" y1="150" x2="1230" y2="150" stroke="#D5C8EE" stroke-width="1"/>

  <rect x="1066" y="166" width="170" height="92" fill="#FFFFFF" stroke="#5D4894" stroke-width="1" rx="6"/>
  <text x="1151" y="188" text-anchor="middle" font-size="13" font-weight="700" fill="#8A7AD2">東元數發處</text>
  <line x1="1080" y1="198" x2="1222" y2="198" stroke="#D5C8EE" stroke-width="0.8"/>
  <text x="1080" y="218" font-size="11" fill="#333333">• 建置與維運訊號層</text>
  <text x="1080" y="236" font-size="11" fill="#333333">• 訊號管線與資料治理</text>
  <text x="1080" y="252" font-size="11" fill="#333333">• 跨業務群提供研究素材</text>

  <rect x="1066" y="274" width="170" height="92" fill="#FFFFFF" stroke="#5D4894" stroke-width="1" rx="6"/>
  <text x="1151" y="296" text-anchor="middle" font-size="13" font-weight="700" fill="#8A7AD2">Intellicon 顧問</text>
  <line x1="1080" y1="306" x2="1222" y2="306" stroke="#D5C8EE" stroke-width="0.8"/>
  <text x="1080" y="326" font-size="11" fill="#333333">• 訊號層指令設計建議</text>
  <text x="1080" y="344" font-size="11" fill="#333333">• EgentHub Agent 開發</text>
  <text x="1080" y="360" font-size="11" fill="#333333">• 種子團隊培訓陪跑</text>

  <rect x="1066" y="382" width="170" height="92" fill="#FFFFFF" stroke="#5D4894" stroke-width="1" rx="6"/>
  <text x="1151" y="404" text-anchor="middle" font-size="13" font-weight="700" fill="#8A7AD2">GM 業務團隊</text>
  <line x1="1080" y1="414" x2="1222" y2="414" stroke="#D5C8EE" stroke-width="0.8"/>
  <text x="1080" y="434" font-size="11" fill="#333333">• 提供商機判斷邏輯</text>
  <text x="1080" y="452" font-size="11" fill="#333333">• 種子團隊（PM＋工程師）</text>
  <text x="1080" y="468" font-size="11" fill="#333333">• 使用 Agent 並回饋迭代</text>

  <rect x="1066" y="490" width="170" height="92" fill="#FFFFFF" stroke="#5D4894" stroke-width="1" rx="6"/>
  <text x="1151" y="512" text-anchor="middle" font-size="13" font-weight="700" fill="#8A7AD2">交付目標</text>
  <line x1="1080" y1="522" x2="1222" y2="522" stroke="#D5C8EE" stroke-width="0.8"/>
  <text x="1080" y="542" font-size="11" fill="#333333">• 商機 Agent MVP 8 週</text>
  <text x="1080" y="560" font-size="11" fill="#333333">• 報價 Agent MVP 12 週</text>
  <text x="1080" y="576" font-size="11" fill="#333333">• 自主開發能力交接</text>

  <rect x="40" y="690" width="1210" height="100" fill="#3D2F66" rx="8"/>
  <text x="64" y="720" font-size="14" font-weight="700" fill="#FFFFFF">總管理處稽核機制</text>
  <line x1="64" y1="730" x2="200" y2="730" stroke="#FFFFFF" stroke-width="1" opacity="0.5"/>

  <text x="64" y="752" font-size="11" fill="#FFFFFF">• 雙週進度燈號（紅黃綠）</text>
  <text x="270" y="752" font-size="11" fill="#FFFFFF">• 階段交付物簽核</text>
  <text x="450" y="752" font-size="11" fill="#FFFFFF">• 顧問工時月結對帳</text>
  <text x="640" y="752" font-size="11" fill="#FFFFFF">• 訊號層研究輸入完整度</text>
  <text x="870" y="752" font-size="11" fill="#FFFFFF">• 資料閘門通過率</text>
  <text x="1050" y="752" font-size="11" fill="#FFFFFF">• 上線後 KPI 追蹤</text>

  <text x="64" y="776" font-size="11" fill="#D5C8EE" font-style="italic">「不亂推論」是 AI Agent 的核心稽核點 — 寧可退回要資料，不容許看似完整、實則根據不足的輸出</text>

  <defs>
    <marker id="arrow" markerWidth="10" markerHeight="10" refX="8" refY="3" orient="auto" markerUnits="strokeWidth">
      <path d="M0,0 L0,6 L9,3 z" fill="#8A7AD2"/>
    </marker>
    <marker id="arrow2" markerWidth="10" markerHeight="10" refX="8" refY="3" orient="auto" markerUnits="strokeWidth">
      <path d="M0,0 L0,6 L9,3 z" fill="#3D2F66"/>
    </marker>
  </defs>
</svg>
